<svg xmlns="http://www.w3.org/2000/svg" xmlns:xlink="http://www.w3.org/1999/xlink" width="128" height="128" viewBox="0 0 128 128"><rect width="100%" height="100%" fill="#DDDDDD"/><path d="M27.92 69.11L30.39 69.11L30.39 70.87L22.79 70.87L22.79 69.11L25.58 69.11L25.58 61.10Q25.58 60.63 25.61 60.12L25.61 60.12L23.63 61.78Q23.46 61.91 23.29 61.94Q23.13 61.98 22.98 61.95Q22.83 61.92 22.72 61.85Q22.60 61.78 22.55 61.69L22.55 61.69L21.81 60.67L26.00 57.11L27.92 57.11L27.92 69.11ZM37.38 68.68L40.90 68.68Q41.28 68.68 41.50 68.90Q41.73 69.11 41.73 69.46L41.73 69.46L41.73 70.87L32.30 70.87L32.30 70.09Q32.30 69.85 32.40 69.59Q32.50 69.33 32.72 69.12L32.72 69.12L36.89 64.94Q37.41 64.41 37.83 63.92Q38.24 63.44 38.52 62.96Q38.79 62.49 38.94 62.00Q39.09 61.51 39.09 60.97L39.09 60.97Q39.09 60.48 38.94 60.10Q38.80 59.72 38.54 59.47Q38.28 59.21 37.91 59.08Q37.55 58.96 37.09 58.96L37.09 58.96Q36.67 58.96 36.32 59.07Q35.96 59.19 35.69 59.41Q35.41 59.62 35.22 59.91Q35.03 60.19 34.93 60.53L34.93 60.53Q34.77 60.97 34.52 61.11Q34.26 61.25 33.78 61.18L33.78 61.18L32.54 60.96Q32.68 59.97 33.09 59.23Q33.50 58.48 34.11 57.98Q34.73 57.48 35.52 57.23Q36.31 56.98 37.22 56.98L37.22 56.98Q38.17 56.98 38.96 57.26Q39.75 57.54 40.31 58.05Q40.87 58.57 41.19 59.29Q41.50 60.01 41.50 60.89L41.50 60.89Q41.50 61.65 41.28 62.30Q41.05 62.95 40.68 63.53Q40.30 64.12 39.80 64.67Q39.30 65.23 38.74 65.80L38.74 65.80L35.65 68.96Q36.09 68.83 36.54 68.75Q36.98 68.68 37.38 68.68L37.38 68.68ZM48.11 69.19L48.11 69.19Q48.69 69.19 49.13 69.02Q49.56 68.85 49.86 68.56Q50.16 68.27 50.32 67.86Q50.47 67.45 50.47 66.97L50.47 66.97Q50.47 65.84 49.84 65.26Q49.21 64.68 48.11 64.68L48.11 64.68Q47.01 64.68 46.38 65.26Q45.76 65.84 45.76 66.97L45.76 66.97Q45.76 67.45 45.91 67.86Q46.06 68.27 46.36 68.56Q46.66 68.85 47.09 69.02Q47.53 69.19 48.11 69.19ZM48.11 58.75L48.11 58.75Q47.59 58.75 47.21 58.91Q46.83 59.07 46.58 59.34Q46.33 59.61 46.21 59.96Q46.09 60.31 46.09 60.70L46.09 60.70Q46.09 61.11 46.19 61.50Q46.29 61.88 46.52 62.18Q46.76 62.48 47.15 62.66Q47.54 62.84 48.11 62.84L48.11 62.84Q48.68 62.84 49.07 62.66Q49.46 62.48 49.70 62.18Q49.94 61.88 50.04 61.50Q50.13 61.11 50.13 60.70L50.13 60.70Q50.13 60.31 50.01 59.96Q49.89 59.61 49.64 59.34Q49.39 59.07 49.01 58.91Q48.63 58.75 48.11 58.75ZM50.43 63.71L50.43 63.71Q51.68 64.11 52.28 64.95Q52.88 65.80 52.88 67.01L52.88 67.01Q52.88 67.92 52.53 68.66Q52.19 69.41 51.56 69.93Q50.93 70.45 50.05 70.74Q49.18 71.02 48.11 71.02L48.11 71.02Q47.05 71.02 46.17 70.74Q45.29 70.45 44.66 69.93Q44.04 69.41 43.69 68.66Q43.34 67.92 43.34 67.01L43.34 67.01Q43.34 65.80 43.94 64.95Q44.54 64.11 45.79 63.71L45.79 63.71Q44.80 63.29 44.30 62.52Q43.80 61.75 43.80 60.67L43.80 60.67Q43.80 59.89 44.12 59.21Q44.43 58.54 45.00 58.04Q45.57 57.54 46.37 57.26Q47.16 56.98 48.11 56.98L48.11 56.98Q49.06 56.98 49.85 57.26Q50.65 57.54 51.22 58.04Q51.79 58.54 52.11 59.21Q52.42 59.89 52.42 60.67L52.42 60.67Q52.42 61.75 51.93 62.52Q51.43 63.29 50.43 63.71ZM68.23 67.72L66.99 68.95L63.77 65.73L60.52 68.97L59.27 67.74L62.52 64.48L59.43 61.39L60.66 60.15L63.76 63.25L66.84 60.17L68.09 61.41L65.00 64.49L68.23 67.72ZM81.24 69.11L83.71 69.11L83.71 70.87L76.11 70.87L76.11 69.11L78.89 69.11L78.89 61.10Q78.89 60.63 78.92 60.12L78.92 60.12L76.94 61.78Q76.77 61.91 76.61 61.94Q76.44 61.98 76.29 61.95Q76.15 61.92 76.03 61.85Q75.92 61.78 75.86 61.69L75.86 61.69L75.12 60.67L79.31 57.11L81.24 57.11L81.24 69.11ZM90.69 68.68L94.21 68.68Q94.59 68.68 94.82 68.90Q95.04 69.11 95.04 69.46L95.04 69.46L95.04 70.87L85.62 70.87L85.62 70.09Q85.62 69.85 85.72 69.59Q85.82 69.33 86.04 69.12L86.04 69.12L90.21 64.94Q90.73 64.41 91.14 63.92Q91.55 63.44 91.83 62.96Q92.11 62.49 92.25 62.00Q92.40 61.51 92.40 60.97L92.40 60.97Q92.40 60.48 92.26 60.10Q92.12 59.72 91.85 59.47Q91.59 59.21 91.23 59.08Q90.86 58.96 90.41 58.96L90.41 58.96Q89.99 58.96 89.63 59.07Q89.27 59.19 89.00 59.41Q88.72 59.62 88.53 59.91Q88.34 60.19 88.25 60.53L88.25 60.53Q88.09 60.97 87.83 61.11Q87.57 61.25 87.09 61.18L87.09 61.18L85.85 60.96Q86.00 59.97 86.41 59.23Q86.81 58.48 87.43 57.98Q88.04 57.48 88.83 57.23Q89.63 56.98 90.54 56.98L90.54 56.98Q91.49 56.98 92.28 57.26Q93.07 57.54 93.63 58.05Q94.19 58.57 94.50 59.29Q94.81 60.01 94.81 60.89L94.81 60.89Q94.81 61.65 94.59 62.30Q94.37 62.95 93.99 63.53Q93.62 64.12 93.11 64.67Q92.61 65.23 92.06 65.80L92.06 65.80L88.96 68.96Q89.41 68.83 89.85 68.75Q90.29 68.68 90.69 68.68L90.69 68.68ZM101.43 69.19L101.43 69.19Q102.00 69.19 102.44 69.02Q102.88 68.85 103.18 68.56Q103.48 68.27 103.63 67.86Q103.78 67.45 103.78 66.97L103.78 66.97Q103.78 65.84 103.15 65.26Q102.53 64.68 101.43 64.68L101.43 64.68Q100.32 64.68 99.70 65.26Q99.07 65.84 99.07 66.97L99.07 66.97Q99.07 67.45 99.22 67.86Q99.37 68.27 99.67 68.56Q99.97 68.85 100.41 69.02Q100.85 69.19 101.43 69.19ZM101.43 58.75L101.43 58.75Q100.90 58.75 100.52 58.91Q100.14 59.07 99.89 59.34Q99.64 59.61 99.52 59.96Q99.40 60.31 99.40 60.70L99.40 60.70Q99.40 61.11 99.50 61.50Q99.60 61.88 99.84 62.18Q100.08 62.48 100.47 62.66Q100.86 62.84 101.43 62.84L101.43 62.84Q102.00 62.84 102.38 62.66Q102.77 62.48 103.01 62.18Q103.25 61.88 103.35 61.50Q103.45 61.11 103.45 60.70L103.45 60.70Q103.45 60.31 103.33 59.96Q103.20 59.61 102.95 59.34Q102.71 59.07 102.33 58.91Q101.95 58.75 101.43 58.75ZM103.74 63.71L103.74 63.71Q105.00 64.11 105.60 64.95Q106.19 65.80 106.19 67.01L106.19 67.01Q106.19 67.92 105.85 68.66Q105.50 69.41 104.87 69.93Q104.25 70.45 103.37 70.74Q102.49 71.02 101.43 71.02L101.43 71.02Q100.36 71.02 99.48 70.74Q98.60 70.45 97.98 69.93Q97.35 69.41 97.00 68.66Q96.66 67.92 96.66 67.01L96.66 67.01Q96.66 65.80 97.25 64.95Q97.85 64.11 99.11 63.71L99.11 63.71Q98.11 63.29 97.61 62.52Q97.11 61.75 97.11 60.67L97.11 60.67Q97.11 59.89 97.43 59.21Q97.75 58.54 98.32 58.04Q98.89 57.54 99.68 57.26Q100.48 56.98 101.43 56.98L101.43 56.98Q102.38 56.98 103.17 57.26Q103.96 57.54 104.53 58.04Q105.10 58.54 105.42 59.21Q105.74 59.89 105.74 60.67L105.74 60.67Q105.74 61.75 105.24 62.52Q104.74 63.29 103.74 63.71Z" fill="#999999"/></svg>